<?xml version="1.0" encoding="iso-8859-1"?>
<!-- Uploaded to: SVG Repo, www.svgrepo.com, Generator: SVG Repo Mixer Tools -->
<!DOCTYPE svg PUBLIC "-//W3C//DTD SVG 1.1//EN" "http://www.w3.org/Graphics/SVG/1.1/DTD/svg11.dtd">
<svg fill="#000000" height="800px" width="800px" version="1.1" id="Capa_1" xmlns="http://www.w3.org/2000/svg" xmlns:xlink="http://www.w3.org/1999/xlink" 
	 viewBox="0 0 491.96 491.96" xml:space="preserve">
<path id="XMLID_21_" d="M490.014,242.873l-121.202-59.926c-1.086-0.538-2.369-0.474-3.391,0.169
	c-1.039,0.632-1.655,1.76-1.655,2.969v36.336h-50.851c-7.186-20.24-23.119-36.117-43.383-43.248v-50.98h36.344
	c1.216,0,2.336-0.625,2.969-1.646c0.649-1.03,0.696-2.311,0.162-3.399L249.138,1.946C248.552,0.754,247.335,0,246.007,0
	c-1.334,0-2.547,0.746-3.133,1.939l-59.919,121.208c-0.537,1.089-0.487,2.369,0.161,3.399c0.633,1.021,1.752,1.646,2.97,1.646
	h36.329v50.98c-20.252,7.14-36.184,23.017-43.371,43.248h-50.848v-36.336c0-1.209-0.617-2.337-1.656-2.969
	c-1.024-0.643-2.303-0.707-3.391-0.169L1.946,242.873C0.747,243.456,0,244.675,0,246.005c0,1.329,0.747,2.547,1.946,3.13
	l121.203,59.879c1.088,0.537,2.366,0.471,3.391-0.161c1.039-0.643,1.656-1.761,1.656-2.969v-36.361h50.719
	c7.121,20.419,23.104,36.466,43.5,43.653v50.591h-36.329c-1.218,0-2.337,0.625-2.97,1.646c-0.648,1.029-0.698,2.311-0.161,3.399
	l59.919,121.209c0.586,1.193,1.799,1.938,3.133,1.938c1.328,0,2.545-0.754,3.131-1.947l59.869-121.2
	c0.534-1.088,0.487-2.37-0.162-3.399c-0.633-1.021-1.753-1.646-2.969-1.646h-36.344v-50.591c20.41-7.18,36.391-23.225,43.515-43.653
	h50.719v36.361c0,1.208,0.616,2.326,1.655,2.969c1.022,0.632,2.305,0.698,3.391,0.161l121.202-59.879
	c1.2-0.583,1.946-1.801,1.946-3.13C491.96,244.675,491.214,243.456,490.014,242.873z"/>
</svg>