<?xml version="1.0" encoding="UTF-8"?>
<svg xmlns="http://www.w3.org/2000/svg" xmlns:xlink="http://www.w3.org/1999/xlink" xmlns:svgjs="http://svgjs.dev/svgjs" version="1.1" viewBox="0 0 2400 800" opacity="0.62">
  <g stroke-width="1.5" stroke="#bd8f52" fill="none" stroke-linecap="round">
    <path d="M 0 888 Q 600 95 1200 400 Q 1800 705 2400 888" stroke-dasharray="6 8"></path>
    <path d="M 0 864 Q 600 95 1200 400 Q 1800 705 2400 864" stroke-dasharray="8 8"></path>
    <path d="M 0 840 Q 600 95 1200 400 Q 1800 705 2400 840" stroke-dasharray="5 2"></path>
    <path d="M 0 816 Q 600 95 1200 400 Q 1800 705 2400 816" stroke-dasharray="7 6"></path>
    <path d="M 0 792 Q 600 95 1200 400 Q 1800 705 2400 792" stroke-dasharray="2 10"></path>
    <path d="M 0 768 Q 600 95 1200 400 Q 1800 705 2400 768" stroke-dasharray="10 1"></path>
    <path d="M 0 744 Q 600 95 1200 400 Q 1800 705 2400 744" stroke-dasharray="9 8"></path>
    <path d="M 0 720 Q 600 95 1200 400 Q 1800 705 2400 720" stroke-dasharray="10 0"></path>
    <path d="M 0 696 Q 600 95 1200 400 Q 1800 705 2400 696" stroke-dasharray="1 1"></path>
    <path d="M 0 672 Q 600 95 1200 400 Q 1800 705 2400 672" stroke-dasharray="0 4"></path>
    <path d="M 0 648 Q 600 95 1200 400 Q 1800 705 2400 648" stroke-dasharray="0 5"></path>
    <path d="M 0 624 Q 600 95 1200 400 Q 1800 705 2400 624" stroke-dasharray="8 7"></path>
    <path d="M 0 600 Q 600 95 1200 400 Q 1800 705 2400 600" stroke-dasharray="3 4"></path>
    <path d="M 0 576 Q 600 95 1200 400 Q 1800 705 2400 576" stroke-dasharray="9 6"></path>
    <path d="M 0 552 Q 600 95 1200 400 Q 1800 705 2400 552" stroke-dasharray="8 3"></path>
    <path d="M 0 528 Q 600 95 1200 400 Q 1800 705 2400 528" stroke-dasharray="6 5"></path>
    <path d="M 0 504 Q 600 95 1200 400 Q 1800 705 2400 504" stroke-dasharray="8 9"></path>
    <path d="M 0 480 Q 600 95 1200 400 Q 1800 705 2400 480" stroke-dasharray="8 1"></path>
    <path d="M 0 456 Q 600 95 1200 400 Q 1800 705 2400 456" stroke-dasharray="7 5"></path>
    <path d="M 0 432 Q 600 95 1200 400 Q 1800 705 2400 432" stroke-dasharray="3 7"></path>
    <path d="M 0 408 Q 600 95 1200 400 Q 1800 705 2400 408" stroke-dasharray="2 9"></path>
    <path d="M 0 384 Q 600 95 1200 400 Q 1800 705 2400 384" stroke-dasharray="10 5"></path>
    <path d="M 0 360 Q 600 95 1200 400 Q 1800 705 2400 360" stroke-dasharray="4 7"></path>
    <path d="M 0 336 Q 600 95 1200 400 Q 1800 705 2400 336" stroke-dasharray="5 2"></path>
    <path d="M 0 312 Q 600 95 1200 400 Q 1800 705 2400 312" stroke-dasharray="8 7"></path>
    <path d="M 0 288 Q 600 95 1200 400 Q 1800 705 2400 288" stroke-dasharray="4 9"></path>
    <path d="M 0 264 Q 600 95 1200 400 Q 1800 705 2400 264" stroke-dasharray="9 4"></path>
    <path d="M 0 240 Q 600 95 1200 400 Q 1800 705 2400 240" stroke-dasharray="6 10"></path>
    <path d="M 0 216 Q 600 95 1200 400 Q 1800 705 2400 216" stroke-dasharray="4 5"></path>
    <path d="M 0 192 Q 600 95 1200 400 Q 1800 705 2400 192" stroke-dasharray="6 3"></path>
    <path d="M 0 168 Q 600 95 1200 400 Q 1800 705 2400 168" stroke-dasharray="3 2"></path>
    <path d="M 0 144 Q 600 95 1200 400 Q 1800 705 2400 144" stroke-dasharray="7 8"></path>
    <path d="M 0 120 Q 600 95 1200 400 Q 1800 705 2400 120" stroke-dasharray="8 4"></path>
    <path d="M 0 96 Q 600 95 1200 400 Q 1800 705 2400 96" stroke-dasharray="7 8"></path>
    <path d="M 0 72 Q 600 95 1200 400 Q 1800 705 2400 72" stroke-dasharray="10 1"></path>
    <path d="M 0 48 Q 600 95 1200 400 Q 1800 705 2400 48" stroke-dasharray="2 3"></path>
  </g>
</svg>
